<svg width="160" height="80" viewBox="0 0 160 80" fill="none" xmlns="http://www.w3.org/2000/svg">
<rect x="27.5267" width="13.7634" height="80" rx="6.88172" fill="#C4C4C4"/>
<rect x="12.0428" y="13.333" width="10.3226" height="53.3333" rx="5.16129" fill="#C4C4C4"/>
<rect y="25" width="6.88172" height="30" rx="3.44086" fill="#C4C4C4"/>
<rect width="13.7634" height="80" rx="6.88172" transform="matrix(-1 0 0 1 132.473 0)" fill="#C4C4C4"/>
<rect width="10.3226" height="53.3333" rx="5.16129" transform="matrix(-1 0 0 1 147.957 13.333)" fill="#C4C4C4"/>
<rect width="6.88173" height="30" rx="3.44086" transform="matrix(-1 0 0 1 160 25)" fill="#C4C4C4"/>
<path d="M50.6994 46C51.4897 46 52.1209 45.786 52.5928 45.3579C52.8782 45.1054 53.0868 44.7981 53.2185 44.4358C53.3612 44.1065 53.4326 43.7059 53.4326 43.2339V42.1801C53.4326 41.2252 53.1307 40.5337 52.527 40.1056C52.966 39.6994 53.1856 39.1067 53.1856 38.3274V37.2572C53.1856 36.7961 53.1142 36.39 52.9715 36.0388C52.8398 35.6765 52.6313 35.3692 52.3459 35.1167C51.8629 34.6886 51.2317 34.4746 50.4524 34.4746H47.9662V46H50.6994ZM49.7774 41.1593H50.6994C51.0067 41.1593 51.2317 41.2252 51.3744 41.3569C51.5391 41.5106 51.6214 41.785 51.6214 42.1801V43.2339C51.6214 43.6071 51.5446 43.8651 51.3909 44.0078C51.2592 44.1285 51.0287 44.1889 50.6994 44.1889H49.7774V41.1593ZM49.7774 36.2857H50.4524C50.7817 36.2857 51.0122 36.3461 51.1439 36.4668C51.2976 36.6205 51.3744 36.8839 51.3744 37.2572V38.3274C51.3744 38.7115 51.2921 38.986 51.1275 39.1506C50.9848 39.2823 50.7598 39.3482 50.4524 39.3482H49.7774V36.2857ZM60.7968 44.1724H58.7222L58.3929 46H56.5488L58.8539 34.4746H60.665L62.9701 46H61.1261L60.7968 44.1724ZM60.4839 42.3613L59.7595 38.2286L59.035 42.3613H60.4839ZM71.8073 46H69.9632L69.0247 41.3734H68.2015V46H66.3903V34.4746H69.1235C69.9028 34.4746 70.5395 34.7051 71.0334 35.1661C71.5823 35.671 71.8567 36.3845 71.8567 37.3065V38.5414C71.8567 39.4744 71.5823 40.1934 71.0334 40.6983C70.9566 40.7751 70.8688 40.8465 70.77 40.9124L71.8073 46ZM70.0455 37.3065C70.0455 36.9224 69.9632 36.648 69.7986 36.4833C69.6559 36.3516 69.4309 36.2857 69.1235 36.2857H68.2015V39.5622H69.1235C69.4309 39.5622 69.6559 39.4964 69.7986 39.3647C69.9632 39.211 70.0455 38.9366 70.0455 38.5414V37.3065ZM79.3013 44.1724H77.2267L76.8974 46H75.0533L77.3584 34.4746H79.1696L81.4746 46H79.6306L79.3013 44.1724ZM78.9884 42.3613L78.264 38.2286L77.5395 42.3613H78.9884ZM87.3995 46.1317C88.1898 46.1317 88.8264 45.9067 89.3094 45.4567C89.8582 44.9298 90.1326 44.2108 90.1326 43.2998V39.3317H87.4159V41.1429H88.3215V43.2998C88.3215 43.7059 88.2447 43.9803 88.091 44.123C87.9483 44.2547 87.7178 44.3206 87.3995 44.3206C87.0921 44.3206 86.8671 44.2547 86.7244 44.123C86.5597 43.9693 86.4774 43.6949 86.4774 43.2998V37.1748C86.4774 36.7797 86.5597 36.5053 86.7244 36.3516C86.8671 36.2199 87.0921 36.154 87.3995 36.154C87.7178 36.154 87.9483 36.2199 88.091 36.3516C88.2447 36.4943 88.3215 36.7687 88.3215 37.1748V38.1956H90.1326V37.1748C90.1326 36.2638 89.8582 35.5448 89.3094 35.0179C88.8264 34.5679 88.1898 34.3429 87.3995 34.3429C86.6311 34.3429 85.9945 34.5679 85.4895 35.0179C84.9407 35.5668 84.6663 36.2857 84.6663 37.1748V43.2998C84.6663 44.1889 84.9407 44.9078 85.4895 45.4567C85.9945 45.9067 86.6311 46.1317 87.3995 46.1317ZM97.0745 41.9496V46H95.2469V41.9496L93.0242 34.4746H94.9341L96.1525 38.6073L97.4038 34.4746H99.3138L97.0745 41.9496ZM110.186 34.4746V46H108.375V40.2538L106.91 44.1889H105.856L104.39 40.2538V46H102.579V34.4746H103.617L106.383 40.863L109.149 34.4746H110.186Z" fill="#C4C4C4"/>
</svg>
